# xmcd CD database file
#
# Track frame offsets:
#	150
#	21081
#	39212
#	60140
#
# Disc length: 1041 seconds
#
# Revision: 1
# Processed by: cddbd v1.5.2PL0 Copyright (c) Steve Scherf et al.
# Submitted via: CDex 1.70beta2
#
DISCID=1f040f04
DTITLE=東方神起 - Beautiful you
DYEAR=2008
DGENRE=JPop
TTITLE0=Beautiful you
TTITLE1=千年戀歌
TTITLE2=Beautiful you (Less Vocal)
TTITLE3=千年戀歌 (Less Vocal)
EXTD=YEAR: 2008
EXTT0=
EXTT1=
EXTT2=
EXTT3=
PLAYORDER=
